<?xml version="1.0" encoding="UTF-8" standalone="no"?>
<svg
   xmlns:dc="http://purl.org/dc/elements/1.1/"
   xmlns:cc="http://creativecommons.org/ns#"
   xmlns:rdf="http://www.w3.org/1999/02/22-rdf-syntax-ns#"
   xmlns:svg="http://www.w3.org/2000/svg"
   xmlns="http://www.w3.org/2000/svg"
   id="svg8"
   version="1.1"
   viewBox="0 0 210 297"
   height="297mm"
   width="210mm">
  <defs
     id="defs2" />
  <metadata
     id="metadata5">
    <rdf:RDF>
      <cc:Work
         rdf:about="">
        <dc:format>image/svg+xml</dc:format>
        <dc:type
           rdf:resource="http://purl.org/dc/dcmitype/StillImage" />
        <dc:title></dc:title>
      </cc:Work>
    </rdf:RDF>
  </metadata>
  <g
     id="layer1">
    <g
       transform="translate(-85.422614,-138.33929)"
       id="layer1-65">
      <g
         transform="translate(18.480964,-18.667085)"
         id="layer1-6">
        <path
           style="fill:#333333;fill-opacity:1;stroke-width:1.76590145"
           d="m 74.921234,164.88047 c -1.73628,-2.0921 -2.81728,-2.2472 -4.71061,-0.67585 -3.86722,3.2095 -5.06072,0.18509 -1.4858,-3.76514 2.90986,-3.21536 3.5063,-3.29691 6.21096,-0.84924 2.6892,2.43371 3.2219,2.43065 5.26426,-0.0302 2.0527,-2.47335 2.5647,-2.47335 5.29771,0 2.733,2.47333 3.24502,2.47333 5.2977,0 2.05269,-2.47335 2.5647,-2.47335 5.2977,0 2.73301,2.47333 3.24502,2.47333 5.297696,0 2.02465,-2.43955 2.59233,-2.44835 5.2086,-0.0806 2.61444,2.36602 3.22871,2.36489 5.60401,-0.0107 2.3797,-2.3797 3.01926,-2.2793 5.92352,0.92987 3.4439,3.80546 2.32714,7.45246 -1.20151,3.92381 -1.57679,-1.57679 -2.76346,-1.43393 -5.01507,0.60375 -2.63361,2.38339 -3.19292,2.37604 -5.22183,-0.0687 -2.05269,-2.47333 -2.5647,-2.47333 -5.29772,0 -2.732996,2.47334 -3.245006,2.47334 -5.297696,0 -2.05268,-2.47333 -2.56469,-2.47333 -5.2977,0 -2.733,2.47334 -3.24501,2.47334 -5.2977,0 -2.05268,-2.47333 -2.5647,-2.47333 -5.29771,0 -2.72114,2.46259 -3.25203,2.46489 -5.27881,0.0227 z"
           id="path21" />
      </g>
    </g>
  </g>
</svg>
